<svg xmlns="http://www.w3.org/2000/svg" viewBox="0 0 721.33331 718.66669">
  <path
       fill="#FFFFFF"
       d="m 273.47513,711.56827 c 0,-1.26596 1.17521,-10.68534 2.61157,-20.93197 11.44826,-81.6687 21.38843,-200.86826 21.38843,-256.48349 0,-12.38168 -141.13098,-4.57901 -272.445396,15.06263 -14.414029,2.156 -13.989802,2.34766 -10.763223,-4.86245 11.244815,-25.12762 44.180824,-59.34127 72.36323,-75.1703 8.606314,-4.83386 8.92678,-3.95148 -4.819243,-13.26951 -32.618588,-22.11119 -56.896164,-47.82819 -68.228125,-72.27339 -4.2333706,-9.13218 -5.2031474,-8.90116 21.392342,-5.09616 42.309166,6.05313 103.804465,12.19751 154.500425,15.43709 32.30826,2.06457 94.42807,5.3527 101.18438,5.3559 11.29029,0.005 6.65688,-96.79559 -11.37923,-237.734217 -6.87403,-53.7154163 -7.01017,-49.922977 1.65866,-46.207085 24.4685,10.488427 54.27436,38.821789 73.22842,69.610738 7.89621,12.826594 6.02188,13.461128 20.43026,-6.916427 19.93884,-28.199202 60.53469,-64.083575 72.4975,-64.083575 1.14147,0 1.19629,-0.519546 -4.97233,47.117703 -7.84329,60.569773 -15.97717,162.725583 -16.89452,212.183183 -0.50271,27.1033 -2.72293,25.83245 40.91351,23.41883 92.98535,-5.14322 173.21397,-12.90802 232.33333,-22.48603 17.21904,-2.78968 16.7483,-3.33465 9.36998,10.84741 -14.37378,27.62823 -37.29674,51.37311 -68.51712,70.97387 -11.30564,7.0979 -11.30564,7.0979 -2.91258,12.75087 20.92099,14.09089 44.80766,35.54372 56.63086,50.86067 5.73772,7.43322 17.76219,26.12538 17.76219,27.61151 0,0.40368 -17.25,-1.16322 -38.33333,-3.482 -83.23053,-9.15384 -175.41834,-16.29765 -232.99999,-18.05561 l -13.33333,-0.40706 -0.42417,28.66667 c -0.79044,53.42197 4.74166,116.39103 20.47225,233.02506 1.80689,13.39711 3.28525,24.67536 3.28525,25.06277 0,1.57199 -23.92876,-11.85805 -32.1144,-18.02425 -17.21201,-12.96567 -49.11963,-50.44399 -53.52889,-62.87439 -0.8267,-2.3306 -0.17959,-3.09467 -11.41436,13.47748 -21.72468,32.04557 -48.88313,56.69752 -73.94235,67.11808 -4.64981,1.93356 -5,1.91797 -5,-0.22255 z M 402.84297,494.10182 c -0.6261,-1.15267 -3.04669,-3.89575 -5.37909,-6.09575 -5.17213,-4.87853 -12.81767,-19.27076 -10.34128,-19.46678 0.92723,-0.0734 6.69097,-0.0206 12.80833,0.11736 16.67911,0.37612 24.65984,-12.16916 14.50564,-22.8021 -30.72295,-32.17143 -22.63367,-87.18182 12.82008,-87.18182 28.35513,0 39.88125,41.52029 14.7099,52.98912 -7.89846,3.59878 10.08588,5.18199 21.12503,1.8597 45.54507,-13.70706 50.09054,-77.48883 7.06825,-99.18129 -32.78757,-16.53196 -67.49585,4.32819 -84.85519,50.99914 -7.97868,21.45086 -6.82761,53.12841 2.71439,74.69967 3.74254,8.46064 3.67834,8.63366 -3.20374,8.63366 -14.21755,0 -18.05311,-32.16706 -8.10823,-68 1.11939,-4.03333 2.41845,-8.83333 2.88679,-10.66667 0.46834,-1.83333 2.27317,-8.13333 4.01073,-14 1.73755,-5.86666 4.29364,-14.86666 5.68018,-20 1.38655,-5.13333 3.87277,-14.13333 5.52494,-20 1.65216,-5.86666 3.46475,-12.76666 4.02796,-15.33333 0.56321,-2.56667 2.29733,-9.59705 3.8536,-15.62307 14.38805,-55.71193 7.98178,-87.67897 -23.62682,-117.89699 -30.23994,-28.90958 -76.58776,38.66319 -62.8555,91.64011 1.5036,5.80064 3.23039,12.94661 3.83732,15.87995 0.60692,2.93333 3.24791,13.43333 5.86885,23.33333 2.62095,9.9 7.1389,27 10.0399,38 2.901,11 6.16326,23 7.24948,26.66667 8.84895,29.87086 10.97383,44.73328 8.75676,61.24903 -2.6921,20.05442 -4.789,24.00044 -13.01245,24.48732 -7.92057,0.46894 -7.74481,0.86124 -3.5292,-7.87731 26.48868,-54.90839 -8.39489,-131.24308 -59.94447,-131.17468 -58.67469,0.0778 -74.25259,77.13568 -20.80788,102.92858 16.97143,8.19056 39.80856,6.79885 26.46718,-1.61294 -25.36198,-15.99082 -10.35107,-55.80908 19.62721,-52.06354 32.32333,4.03853 39.14366,45.78957 13.47593,82.49368 -8.0725,11.54345 -8.82232,13.15126 -8.44301,18.10407 0.58127,7.59019 4.98537,9.74551 19.59359,9.58895 15.04729,-0.16128 14.88034,3.92221 -0.87327,21.35956 -4.83781,5.35488 -4.83781,5.35488 16.37916,26.60298 l 21.21696,21.2481 20.93516,-20.90448 c 16.14476,-16.12111 20.67468,-21.38403 19.79681,-23.00023 z"
       id="path1" />
</svg>
