<svg xmlns="http://www.w3.org/2000/svg" viewBox="0 0 291 413">
  <path d="M 144.00 409.50 L 136.00 405.50 L 102.00 375.50 L 59.50 329.00 L 41.50 303.00 L 30.50 282.00 L 22.50 253.00 L 23.50 232.00 L 30.50 215.00 L 37.50 205.00 L 56.00 189.50 L 71.00 183.50 L 89.00 182.50 L 109.00 189.50 L 121.50 199.00 L 121.00 144.50 L 89.00 145.50 L 78.00 149.50 L 71.00 156.50 L 42.50 122.00 L 71.00 89.50 L 87.00 98.50 L 121.00 100.50 L 119.50 71.00 L 109.50 57.00 L 143.00 28.50 L 176.50 58.00 L 166.50 76.00 L 166.00 100.50 L 199.00 98.50 L 214.00 88.50 L 242.50 122.00 L 214.00 155.50 L 201.00 147.50 L 193.00 145.50 L 166.00 144.50 L 165.50 197.00 L 180.00 187.50 L 195.00 182.50 L 209.00 182.50 L 222.00 186.50 L 240.00 197.50 L 249.50 208.00 L 256.50 219.00 L 262.50 238.00 L 261.50 259.00 L 255.50 279.00 L 233.50 318.00 L 191.50 367.00 L 144.00 409.50 Z" fill="#FFFFFF"/>
</svg>
